<?xml version="1.0" encoding="UTF-8"?>
<svg id="Layer_1" data-name="Layer 1" xmlns="http://www.w3.org/2000/svg" xmlns:xlink="http://www.w3.org/1999/xlink" viewBox="0 0 1296 1728">
  <defs>
    <style>
      .cls-1 {
        fill: #2a436b;
      }

      .cls-2 {
        fill: #3b5a8b;
      }

      .cls-3 {
        fill: #233b5b;
      }

      .cls-4 {
        fill: #cb4e3b;
      }

      .cls-5 {
        fill: #fcb636;
      }

      .cls-6 {
        fill: #ad3e3a;
      }

      .cls-7 {
        fill: #375881;
      }

      .cls-8 {
        fill: #507199;
      }

      .cls-9 {
        fill: #a83f3e;
      }

      .cls-10 {
        fill: url(#linear-gradient);
      }
    </style>
    <linearGradient id="linear-gradient" x1="648" y1="864" x2="648" y2="0" gradientUnits="userSpaceOnUse">
      <stop offset="0" stop-color="#f8a533"/>
      <stop offset="1" stop-color="#ef56a0"/>
    </linearGradient>
  </defs>
  <rect class="cls-10" width="1296" height="864"/>
  <circle class="cls-5" cx="827" cy="456.71" r="150"/>
  <path class="cls-8" d="M1296,833.17v406.21l-1012.08-332.31,320.12-492.02c57.87,0,209.83,361.03,691.96,418.11Z"/>
  <path class="cls-7" d="M0,748.31v502.97h1208.09s-623.22-333.26-640.24-447.43c-17.02-114.17,134.13,27.77,80.15-89.49s-43.96-299.31-43.96-299.31L0,748.31Z"/>
  <path class="cls-1" d="M1296,907.08v401.11l-964.26-81.59c518.92-14.13,651.09-362.6,964.26-319.52Z"/>
  <path class="cls-4" d="M0,1426.69v-519.62c465.92,0,683.23,422.69,1296,332.31v187.31H0Z"/>
  <path class="cls-9" d="M0,1655.54v-550.77c215.92-40.38,315.92,317.31,567.85,321.92l-50,248.85L0,1655.54Z"/>
  <path class="cls-2" d="M0,1728v-92.46s456.31,43.43,512.08-44.23c55.77-87.66-215.38-178.42-192.31-230.77,23.08-52.35,758.93-81.24,758.93-81.24l98.76,448.7H0Z"/>
  <path class="cls-3" d="M648,1728c344.85-148.23-34-265.54-30.15-344.38,3.85-78.85,462.13-75.41,462.13-75.41l216.02,133.1v286.69h-648Z"/>
  <path class="cls-6" d="M1296,1124c-99.31,42.88-125.85,79.23-244.31,178.08-118.46,98.85-251.92,85.38-243.85,112.31,8.08,26.92,421.54,40.38,488.15,98.08v-388.46Z"/>
</svg>